<?xml version="1.0" encoding="UTF-8"?>
<svg id="Calque_2" data-name="Calque 2" xmlns="http://www.w3.org/2000/svg" viewBox="0 0 215.86 186.82">
  <defs>
    <style>
      .cls-1, .cls-2 {
        stroke-width: 0px;
      }

      .cls-2 {
        fill: #e2e2e2;
      }
    </style>
  </defs>
  <g id="svg2">
    <g>
      <rect class="cls-2" x="141.46" width="74.4" height="106.6" rx="7.79" ry="7.79"/>
      <g>
        <path id="kyushu" class="cls-1" d="m161.8,87.25l-1.63,1.64.67,2.31,1.43.1.96,5.01,1.15,1.25,2.01-1.83.86-3.28-2.49-3.56-2.96-1.64h0Z"/>
        <path id="shikoku" class="cls-1" d="m170.6,83.98l-2.77,2.6-.1,2.99.67.87,3.73-3.18-.29-3.18-1.24-.1h0Z"/>
        <path id="honshu" class="cls-1" d="m166.77,77.81l-4.88,5.59.86,1.35,2.39.29,4.49-3.47,3.16-.58,2.87,3.37,2.2-.77.86-3.28,4.11-.1,4.02-4.82-2.1-8-.96-4.24,2.1-1.73-4.78-7.22-1.24.1-2.58,2.89v2.41l1.15,1.35.38,6.36-2.96,3.66-1.72-1.06-1.34,2.99-.29,2.79,1.05,1.64-.67,1.25-2.2-1.83h-1.53l-1.34.77-1.05.29h0Z"/>
        <path id="hokkaido" class="cls-1" d="m175,34.27l-1.53,1.35.77,2.89,1.34,1.35-.1,4.43-1.72.67-1.34,2.99,3.92,5.39,2.58-.87.48-1.35-2.77-2.5,1.72-2.22,1.82.29,1.43,1.54.1-3.18,3.92-3.18,2.2-.58-1.82-3.08-.86-1.35-1.43.96-1.24,1.54-2.68-.58-2.77-1.83-2.02-2.68h0Z"/>
        <path id="iturup" class="cls-1" d="m189.43,31.28l-2.68,3.76.19,1.83,1.34-.58,3.15-3.95-2-1.06h0Z"/>
        <path id="urup" class="cls-1" d="m192.97,25.79l-.96,2.6.1,1.73,1.63-1.06,1.53-3.08v-1.15l-2.3.96h0Z"/>
        <path id="onekotan" class="cls-1" d="m196.32,8.74v4.24l1.34.48.96-1.54v-3.27l-2.3.09h0Z"/>
      </g>
      <g>
        <path id="estonia" class="cls-1" d="m118.28,96.14l-5.6-.2-3.55,2.17-.05,1.61,2.3,2.17,7.15,1.21-.25-6.96h0Z"/>
        <path id="iceland" class="cls-1" d="m6.87,69.79l-1.96-1.11-2.64,1.67-2.27,2.1.06,1.17,2.94.37-.18,2.1-1.04,1.05.25.68,2.94.19v3.4l4.23.74,2.51,1.42,2.82.12,4.84-2.41,3.74-4.94.06-3.34-2.27-1.92-1.9-1.61-.86.62-1.29,1.67-1.47-.19-1.47-1.61-1.9.18-2.76,2.29-1.66,1.79-.92-.8-.06-1.98.92-.62-.66-1.03h0Z"/>
        <path id="cyprus" class="cls-1" d="m143.72,182.32l1.23.89-3.81,3.61-1.82-.06-1.35-.95.18-1.77,2.76-.18,2.81-1.54h0Z"/>
        <path id="norway" class="cls-1" d="m115.97,54.62l2.02-1.48-.18-1.66-1.28-.74.18-2.03h1.1v-1.11l-4.77-1.29-7.15.74-.73,3.14-1.65-.55-1.1-1.85-3.49.18-.37,3.51-1.65.74-.92-1.85-7.34,5.91,1.47,1.66-2.75,1.29-6.24,12.38-2.2,1.48.18,1.11,2.2,1.11-.55,2.4-3.67-.19-1.1-1.29-2.38,2.77-1.47,1.11-.37,2.59-1.28.74-3.3.74-1.65,5.18,1.1,8.5,1.28,3.88,1.47,1.48,3.3-.18,4.77-4.62,1.83-3.14.55,4.62,3.12-5.54.18-15.53,2.54-1.6.76-8.57,7.7-11.09,3.67-1.29,1.65-2.03,5.5,1.29,2.75,1.66.92-4.62,4.59-2.77,2.76,4.81h0Z"/>
        <path id="britain" class="cls-1" d="m46.63,101.56l-1.83,2.77.73,1.11h4.22v1.85l-1.1,1.48.73,3.88,2.38,4.62,1.83,4.25,2.93,1.11,1.28,2.22-.18,2.03-1.83,1.11-.18.92,1.28.74-1.1,1.48-2.57,1.11-4.95-.55-7.71,3.51-2.57-1.29,7.34-4.25-.92-.55-3.85-.37,2.38-3.51.37-2.96,3.12-.37-.55-5.73-3.67-.18-1.1-1.29.18-4.25-2.2.18,2.2-7.39,4.04-2.96,1.3,1.28h0Z"/>
        <path id="ulster" class="cls-1" d="m38.93,113.95l-3.3.37-.18,2.96,2.2,1.48,2.38-.55.92-1.66-2.02-2.6h0Z"/>
        <path id="ireland" class="cls-1" d="m40.02,119.03l-.91,6-8.07,2.96h-2.57l-1.83-1.29v-1.11l4.04-2.59-1.1-2.22.18-3.14,3.49.18,1.6-3.76-.21,3.34,2.71,2.15,2.67-.52h0Z"/>
        <path id="sweden" class="cls-1" d="m98.23,57.06l1.96,1.81h3.67l2.02,3.88.55,6.65-4.95,3.51v3.51l-3.49,4.81-2.02.18-2.75,4.62.18,4.44,4.77,3.51-.37,2.03-1.83,2.77-2.75,2.4.18,7.95-4.22,1.48-1.47,3.14h-2.02l-1.1-5.54-4.59-7.04,3.77-6.31.26-15.59,2.6-1.43.63-8.92,7.41-10.61,3.56-1.25h0Z"/>
        <path id="finland" class="cls-1" d="m107.3,69.42l2.07.91,1.28,2.4-1.28,1.66-6.42,7.02-1.1,3.7,1.47,5.36,4.95,3.7,6.6-3.14,5.32-.74,4.95-7.95-3.67-8.69-3.49-8.32.55-5.36-2.2-.37-.57-3.91-2.96-4.83-3.28,2.27-1.29,5.27-3.48-2.09-4.84-1.18-1.08,1.26,1.86,1.68,3.39-.06,2.73,4.41.49,7h0Z"/>
        <path id="path302" class="cls-1" d="m118.58,103.85l-6.85-1.11.15,3.83,6.35,3.88,2.6-.76-.15-2.92-2.1-2.92h0Z"/>
        <path id="hiumaa" class="cls-1" d="m107.27,100.12l-1.55-.05-.9.91.65.96,1.55.1.8-1.16-.55-.76h0Z"/>
        <path id="saaremaa" class="cls-1" d="m107.12,104.2l-1.5-.15-2.7,3.23v1.51l.9.35,1.75.05,2.9-2.37.4-.81-1.75-1.81h0Z"/>
        <path id="lithuania" class="cls-1" d="m111.32,107.18l-2.15-.05-2.95,2.82h-2.5l.15,3.53-1.5,2.77,5.4.05,1.55-.2,1.55,1.87,3.55-.15,3.4-4.33-.2-2.57-6.3-3.74h0Z"/>
        <path id="belarus" class="cls-1" d="m111.17,118.77l1.5,2.47-.6,1.97.1,1.56.55,1.87,3.1-1.76,3.85.1,2.7,1.11h6.85l2-4.79,1.2-1.81v-1.21l-4.3-6.05-3.8-1.51-3.1-.35-2.7.86.1,2.72-3.75,4.74-3.7.08h0Z"/>
        <path id="poland" class="cls-1" d="m111.97,127.24l.85,1.56.2,1.66-.7,1.61-1.6,3.08-1.35.61-1.75-.76-1.05.05-2.55.96-2.9-.86-4.7-3.33-4.6-2.47-1.85-2.82-.35-6.65,3.6-3.13,4.7-1.56,1.75-.2-.7,1.41.45.55,7.91.15,1.7-.05,2.8,4.29-.7,1.76.3,2.07.54,2.07h0Z"/>
        <path id="spain" class="cls-1" d="m48.87,157.48h-12.74l-2.57-1.16-1.24.09-1.5,3.12.53,3.21,4.87.45.62,2.05-2.12,11.95.09,2.14,3.45,1.87,3.98.27,7.96-1.96,3.89-4.9.09-4.99,6.9-6.24.35-2.76-6.28-.09-6.28-3.05h0Z"/>
        <path id="portugal" class="cls-1" d="m31.44,163.72l-.62,8.65-1.77,1.6.18.98,1.24,2.05-.8,2.5,1.33.45,3.1-.36-.18-2.5,2.03-11.59-.44-1.6-4.07-.18h0Z"/>
        <path id="majorca" class="cls-1" d="m61.61,169.69l-1.59.54.35,1.43h2.3l.97-1.07-2.03-.9h0Z"/>
        <path id="sardinia" class="cls-1" d="m78.07,165.86l-2.65,1.34.35,5.17,2.12.36,1.59-1.52v-4.9l-1.41-.45h0Z"/>
        <path id="corsica" class="cls-1" d="m78.34,159.44l-1.95,1.96-.18,1.78,1.59.98.62-.09.35-2.59-.43-2.04h0Z"/>
        <path id="france" class="cls-1" d="m60.91,131.18l-2.21.54-4.42,4.81-1.33.09-1.77-1.25-1.15.27-.88,2.76-6.46.18.18,1.43,4.42,2.94,5.13,4.1-.09,4.9-2.74,4.81,5.93,2.85,6.02.18,1.86-2.14,3.8.09,1.06.98,3.8-.27,1.95-2.5-2.48-2.94-.18-1.87.53-2.05-1.24-1.78-2.12.62-.27-1.6,4.69-5.17v-3.12l-3.1-1.78-1.59-.27-7.34-4.81h0Z"/>
        <path id="netherlands" class="cls-1" d="m70.6,120.75l-4.53,2.23.96.87.1,2.23-.96-.19-1.06-1.65-2.53,4.01,3.89.81,1.45,1.53.77.02.51-3.46,2.45-1.03-1.05-5.37h0Z"/>
        <path id="belgium" class="cls-1" d="m62.12,129l-.64,1.6,6.88,4.54,1.98.47.07-2.15-1.73-1.94h-1.06l-1.45-1.65-4.05-.87h0Z"/>
        <path id="germany" class="cls-1" d="m71.65,120.36l3.57-.58v-2.52l2.99-.49,1.64,1.65,1.73.19,2.7-1.17,2.41.68,2.12,1.84.29,6.89,2.12,2.82-2.79.39-4.63,2.91.39.97,4.14,3.88-.29,1.94-3.85,1.94-3.57.1-.87,1.84h-1.83l-.87-1.94-3.18-.78-.1-3.2-2.7-1.84.29-2.33-1.83-2.52.48-3.3,2.5-1.17-.86-6.2h0Z"/>
        <path id="denmark" class="cls-1" d="m77.28,103.98l-4.15,4.59-.15,2.99,1.89,4.93,2.96-.56-.37-4.03,2.04-2.28-.04-1.79-1.44-3.73-.74-.12h0Z"/>
        <path id="sjælland" class="cls-1" d="m81.95,112.12l-.93-.04-1.22,1.12.15,1.75,2.89.08.15-1.98-1.04-.93h0Z"/>
        <path id="gotland" class="cls-1" d="m99,102.65l-2.11,1.67,1.06,2.45,1.87-1.82-.82-2.3h0Z"/>
        <path id="switzerland" class="cls-1" d="m73.42,141.86l-4.36,4.64.09.47,1.79-.56,1.61,2.24,2.72-.96,1.88,1.46.77-.44,2.32-3.64-.59-.56-2.29-.06-1.11-2.27-2.83-.32h0Z"/>
        <path id="czech" class="cls-1" d="m88.94,137.35h4.43l2.37,1.69,4.39-3.65-4.26-3.04-4.22-2.04-2.89.52-3.92,2.52,4.1,4h0Z"/>
        <path id="slovakia" class="cls-1" d="m96.35,139.61l.69.61.09,1.04,7.63-.17,5.64-2.43-.09-2.47-1.08.48-1.55-.83-.95-.04-2.5,1-3.4-.82-4.48,3.63h0Z"/>
        <path id="austria" class="cls-1" d="m81.14,142.6l-.65,1.35.56.96,2.33-.48h1.98l2.15,1.82,4.57-.83,3.36-2,.86-1.35-.13-1.74-3.02-2.26-4.05.04-.34,2.3-4.26,2.08-3.36.11h0Z"/>
        <path id="hungary" class="cls-1" d="m97.25,142.08l-1.16,1.82.09,2.78,1.85.95,5.69.17,7.93-6.68.04-1.48-.86-.43-5.73,2.6-7.85.27h0Z"/>
        <path id="slovenia" class="cls-1" d="m95.31,144.47l-2.54,1.52-4.74,1.04.95,2.74,3.32.04,3.06-2.56-.05-2.78h0Z"/>
        <path id="croatia" class="cls-1" d="m96.13,147.64l-3.53,2.91h-3.58l-.43,2.52,1.64.43.82-1.22,1.29,1.13,1.03,3.6,7.07,3.3.7-.8-7.17-7.4.73-1.35,6.81-.26.69-2.17-4.44.13-1.63-.82h0Z"/>
        <path id="bosnia" class="cls-1" d="m95.31,151.42l-.37.61,6.71,6.92,2.46-3.62-.09-1.43-2.15-2.61-6.56.13h0Z"/>
        <path id="italy" class="cls-1" d="m72.78,149.46l-.62,1.57.17,1.71,2.39,2.79,3.76-.13,8.3,9.64,5.18,1.5,3.06,2.89.73,6.59,1.64-.96,1.42-3.59-.35-2.58,2.43-.22.35-1.46-6.85-3.28-6.5-6.39-2.59-3.82-.63-3.63,3.31-.79-.85-2.39-2.03-1.71-1.75-.08-2.44.67-2.3,3.22-1.39.92-2.15-1.32-2.29.85h0Z"/>
        <path id="sicily" class="cls-1" d="m92.95,175.5l-1.45-.78-4.95.78.17,1.34,4.45,2.24.67.73,1.17.17-.06-4.48h0Z"/>
        <path id="malta" class="cls-1" d="m93.12,182.95l-1.67.34.06,1.85,1.5.5.67-.56-.56-2.13h0Z"/>
        <path id="ukraine" class="cls-1" d="m116.08,125.63l-2.9,1.63.72,3.08-2.68,5.65.02,2.49,1.26.8,8.08.4,2.26-1.87,2.42.81,3.47,4.63-2.54,4.56,3.02.88,3.95-4.55,2.26.41,2.1,1.46-1.85,2.44,2.5,3.9h2.66l1.37-2.6,2.82-.57.08-2.11-5.24-.81.16-2.27h5.08l5.48-4.39,2.42-2.11.4-6.66-10.8-.97-4.43-6.25-3.06-1.05-3.71.16-1.67,4.13-7.6.1-2.47-1.14-3.58-.18h0Z"/>
        <path id="moldova" class="cls-1" d="m121.26,140.19l3.1,4.77-.26,2.7,1.11.05,2.63-4.45-3.16-3.92-1.79-.74-1.63,1.59h0Z"/>
        <path id="romania" class="cls-1" d="m112.69,140.08l-.26,1.48-5.79,4.82,4.84,7.1,3.1,2.17h5.58l1.84-1.54,2.47-.32,1.84,1.11,3.26-3.71-.63-1.86-3.31-.85-2.26-.11.11-3.18-3-4.72-7.79-.39h0Z"/>
        <path id="montenegro" class="cls-1" d="m105.41,159.73l-.04-.94-1.32-1.85-2.14,3.02.42,1.27,1.74.32,1.34-1.82Z"/>
        <path id="serbia" class="cls-1" d="m106.06,147.02l-2.05,1.54h-1l-.68,2.12,2.42,2.81.16,2.23-.34.48,1.64,2.3.06,1.22,1.18,1.14,3.84-1.17-.32-5.46-4.9-7.21Z"/>
        <path id="bulgaria" class="cls-1" d="m111.95,154.87l.16,4.98,1.68,3.5,6.31.11,2.84-2.01,2.79-1.11-.68-3.18.63-1.7-1.42-.74-1.95.16-1.53,1.54-6.42.05-2.41-1.6h0Z"/>
        <path id="albania" class="cls-1" d="m104.53,162.24v4.61l1.32,2.49.95-.11,1.63-2.97-.95-1.33-.37-3.29-1.26-1.17-1.32,1.77h0Z"/>
        <path id="macedonia" class="cls-1" d="m111.43,160.49l-3.37,1.11.16,2.86.79,1.01,4-1.86-1.58-3.12h0Z"/>
        <path id="greece" class="cls-1" d="m107.22,170.08l-.11,1.33,4.63,2.33,2.21.85-1.16,1.22-2.58.26-.37,1.17.89,2.01,2.89,1.54,1.26.11.16-3.45,1.89-2.28-5.16-6.1.68-2.07,1.21-.05,1.84,1.48,1.16-.58.37-2.07,5.42.05.21-3.18-2.26,1.59-6.63-.16-4.31,2.23-2.24,3.77h0Z"/>
        <path id="thrace" class="cls-1" d="m123.53,162.18l-.16,3.55,3.1-.95,1.42-.95-.42-1.54-1.47-1.17-2.47,1.06h0Z"/>
        <path id="crete" class="cls-1" d="m117.27,183.07l1.63.05.68,1.01h2.37l1.58-.58.53.64-1.05,1.38-4.63.16-.84-1.11-.89-.53.62-1.02h0Z"/>
      </g>
    </g>
  </g>
</svg>